<svg xmlns="http://www.w3.org/2000/svg" width="236" height="236" fill="none" viewBox="0 0 236 236"><path fill="#fff" stroke="url(#a)" stroke-width="3.676" d="M121.76 221.753a6.74 6.74 0 0 1-6.96.005l-79.779-48.027a6.74 6.74 0 0 1-3.264-5.774V22.578a6.74 6.74 0 0 1 6.74-6.74h159.306a6.74 6.74 0 0 1 6.741 6.74v145.386a6.74 6.74 0 0 1-3.257 5.77z"/><path fill="#fff" stroke="url(#b)" stroke-width="3.676" d="M121.76 221.753a6.74 6.74 0 0 1-6.96.005l-79.779-48.027a6.74 6.74 0 0 1-3.264-5.774V22.578a6.74 6.74 0 0 1 6.74-6.74h159.306a6.74 6.74 0 0 1 6.741 6.74v145.386a6.74 6.74 0 0 1-3.257 5.77z"/><path fill="#fff" stroke="url(#c)" stroke-width="3.676" d="M121.379 221.753a6.74 6.74 0 0 1-6.96.005l-79.78-48.027a6.74 6.74 0 0 1-3.263-5.774V22.578a6.74 6.74 0 0 1 6.74-6.74h159.306a6.74 6.74 0 0 1 6.74 6.74v145.386a6.74 6.74 0 0 1-3.257 5.77z"/><path fill="#475c6c" d="M63.308 64.57v-.66h3.94v.66H65.66V69h-.766v-4.43zm9.679 1.885q0 .815-.298 1.401a2.2 2.2 0 0 1-.818.9 2.2 2.2 0 0 1-1.176.314q-.66 0-1.18-.314a2.2 2.2 0 0 1-.816-.902q-.3-.587-.299-1.4 0-.815.299-1.399.298-.587.815-.9.52-.316 1.18-.316t1.177.316q.52.314.818.9.297.584.298 1.4m-.76 0q0-.623-.202-1.047a1.47 1.47 0 0 0-.547-.646 1.4 1.4 0 0 0-.783-.222q-.44 0-.786.222-.345.219-.547.646-.198.425-.198 1.046 0 .623.198 1.05.202.424.547.646.346.219.786.219.438 0 .783-.22a1.5 1.5 0 0 0 .547-.645q.201-.428.201-1.05M74.608 69v-5.09h1.815q.594 0 .984.215.39.216.584.592.194.373.194.84 0 .47-.197.845a1.4 1.4 0 0 1-.586.592q-.39.216-.982.216h-1.248v-.651h1.178q.375 0 .61-.13a.8.8 0 0 0 .343-.357q.109-.227.109-.515t-.11-.512a.8.8 0 0 0-.345-.35q-.234-.127-.617-.127h-.964V69zm10.933-5.09h.77v3.347q0 .535-.25.947a1.76 1.76 0 0 1-.707.647 2.3 2.3 0 0 1-1.066.234 2.3 2.3 0 0 1-1.064-.234 1.76 1.76 0 0 1-.706-.647 1.8 1.8 0 0 1-.251-.947V63.91h.768v3.286q0 .345.151.614.154.27.436.423.28.151.666.151.387 0 .668-.151.285-.154.433-.423.152-.268.152-.614zm3.086 0 1.218 1.99h.04l1.218-1.99h.89l-1.586 2.544L92.004 69h-.895l-1.223-1.964h-.04L88.623 69h-.895l1.623-2.546-1.613-2.545zm6.671-.24-1.64 6.096h-.664l1.64-6.096zm4.63.24h.77v3.347q0 .535-.251.947a1.75 1.75 0 0 1-.706.647 2.3 2.3 0 0 1-1.066.234 2.3 2.3 0 0 1-1.064-.234 1.76 1.76 0 0 1-.706-.647 1.8 1.8 0 0 1-.251-.947V63.91h.768v3.286q0 .345.151.614a1.1 1.1 0 0 0 .435.423q.282.151.667.151.387 0 .668-.151.284-.154.433-.423.15-.268.151-.614zm3.319 0V69h-.768v-5.09zm5.948 5.09h-1.648v-5.09h1.701q.748 0 1.285.305.537.303.823.872.288.567.288 1.36 0 .795-.291 1.367a2.04 2.04 0 0 1-.835.88q-.547.306-1.323.306m-.88-.671h.838q.582 0 .967-.219a1.38 1.38 0 0 0 .577-.639q.19-.42.191-1.024 0-.6-.191-1.017a1.35 1.35 0 0 0-.564-.634q-.376-.216-.933-.216h-.885zm4.949.671v-5.09h3.191v.66h-2.423v1.551h2.257v.66h-2.257v1.558h2.453V69zm7.658-3.754a.73.73 0 0 0-.328-.546q-.288-.197-.726-.197-.312 0-.542.1a.84.84 0 0 0-.355.268.63.63 0 0 0-.124.385.57.57 0 0 0 .084.314.8.8 0 0 0 .226.22q.142.088.304.147a3 3 0 0 0 .31.095l.498.13q.243.059.499.16.256.103.475.27.22.166.353.412.137.246.137.589 0 .432-.224.768-.22.336-.644.53-.42.194-1.017.194-.571 0-.989-.182a1.53 1.53 0 0 1-.654-.515 1.5 1.5 0 0 1-.261-.795h.771a.8.8 0 0 0 .179.46.97.97 0 0 0 .405.27q.248.088.545.088.326 0 .579-.102a.97.97 0 0 0 .402-.288.68.68 0 0 0 .147-.435.54.54 0 0 0-.129-.37 1 1 0 0 0-.346-.24 3.4 3.4 0 0 0-.489-.166l-.602-.164q-.612-.166-.969-.49-.356-.323-.356-.855 0-.44.239-.768.238-.329.646-.51.407-.183.92-.183.517 0 .912.181.398.18.626.5.229.315.239.725zm3.161-1.337V69h-.768v-5.09zm5.228 1.608a1.6 1.6 0 0 0-.193-.405 1.25 1.25 0 0 0-.667-.504 1.5 1.5 0 0 0-.464-.068q-.43 0-.776.222a1.5 1.5 0 0 0-.547.648q-.199.426-.199 1.042 0 .619.202 1.047.201.427.551.648t.798.222q.415 0 .724-.17.31-.168.48-.477.171-.31.171-.73l.199.037h-1.457v-.634h2.001v.58q0 .64-.273 1.113a1.86 1.86 0 0 1-.751.726q-.477.256-1.094.256-.69 0-1.213-.319a2.16 2.16 0 0 1-.81-.902q-.291-.587-.291-1.392 0-.609.169-1.094.17-.484.475-.823.308-.34.723-.519.418-.181.913-.181.413 0 .768.121.357.123.636.346a1.97 1.97 0 0 1 .713 1.21zm6.572-1.608V69h-.706l-2.588-3.734h-.047V69h-.768v-5.09h.711l2.59 3.738h.047v-3.739zM140.616 69h-.816l1.832-5.09h.888l1.832 5.09h-.815l-1.44-4.166h-.04zm.136-1.994h2.645v.647h-2.645zm8.206-1.489a1.6 1.6 0 0 0-.194-.405 1.25 1.25 0 0 0-.667-.504 1.5 1.5 0 0 0-.464-.068q-.43 0-.776.222a1.5 1.5 0 0 0-.547.648q-.199.426-.199 1.042 0 .619.202 1.047.201.427.551.648t.798.222q.415 0 .724-.17.31-.168.48-.477.171-.31.171-.73l.199.037h-1.457v-.634h2.001v.58q0 .64-.273 1.113a1.86 1.86 0 0 1-.751.726q-.477.256-1.094.256-.69 0-1.213-.319a2.16 2.16 0 0 1-.81-.902q-.291-.587-.291-1.392 0-.609.169-1.094.17-.484.475-.823.308-.34.723-.519.418-.181.913-.181.413 0 .768.121.357.123.636.346a1.97 1.97 0 0 1 .714 1.21zM151.42 69v-5.09h3.192v.66h-2.424v1.551h2.257v.66h-2.257v1.558h2.453V69zm8.991-5.09V69h-.706l-2.588-3.734h-.047V69h-.768v-5.09h.711l2.59 3.738h.047v-3.739zm6.013 1.655h-.775a1.2 1.2 0 0 0-.465-.758 1.3 1.3 0 0 0-.395-.2 1.6 1.6 0 0 0-.46-.067q-.44 0-.788.222a1.5 1.5 0 0 0-.547.648q-.2.428-.199 1.044 0 .623.199 1.05.201.427.549.646t.783.219q.241 0 .458-.065a1.3 1.3 0 0 0 .395-.196 1.2 1.2 0 0 0 .47-.749l.775.003q-.062.375-.241.69-.176.314-.455.543-.276.225-.631.35a2.3 2.3 0 0 1-.776.125q-.661 0-1.178-.314a2.2 2.2 0 0 1-.815-.902q-.297-.587-.296-1.4 0-.815.298-1.399a2.2 2.2 0 0 1 .815-.9q.518-.316 1.176-.316.405 0 .756.117.353.116.634.338.28.222.465.542.183.318.248.729m1.191-1.656h.873l1.329 2.314h.055l1.33-2.314h.873l-1.847 3.092V69h-.766v-1.999z"/><g filter="url(#d)"><path fill="url(#e)" d="M85.397 163.677q-.081-.807-.687-1.254t-1.648-.446q-.706 0-1.193.2-.487.194-.747.54a1.3 1.3 0 0 0-.254.787q-.013.367.154.64.173.273.473.474.3.193.694.34.393.14.84.24l1.227.293a8.7 8.7 0 0 1 1.64.534q.748.334 1.295.82.547.487.847 1.147.306.661.313 1.514-.007 1.254-.64 2.174-.627.915-1.814 1.421-1.18.5-2.848.5-1.654 0-2.881-.507-1.221-.507-1.908-1.5-.679-1-.713-2.475h2.794q.048.687.394 1.148.354.453.94.687.594.226 1.34.226.735 0 1.275-.213.546-.213.847-.594.3-.38.3-.873 0-.46-.274-.774-.267-.314-.787-.534a8 8 0 0 0-1.26-.4l-1.487-.373q-1.728-.42-2.728-1.314t-.994-2.408q-.006-1.24.66-2.167.674-.927 1.848-1.448t2.667-.52q1.521 0 2.655.52 1.14.52 1.774 1.448.633.927.654 2.147zm7.04 9.731v-13.659h9.204v2.381h-6.316v3.255h5.843v2.381h-5.843v3.261h6.343v2.381zm13.644 0v-13.659h2.887v11.278h5.856v2.381zm12.799 0v-13.659h9.204v2.381h-6.316v3.255h5.842v2.381h-5.842v3.261h6.343v2.381zm25.695-8.877h-2.921a2.8 2.8 0 0 0-.327-1.007 2.6 2.6 0 0 0-.633-.76 2.8 2.8 0 0 0-.894-.481 3.4 3.4 0 0 0-1.087-.166q-1.06 0-1.848.527-.786.52-1.22 1.52-.434.994-.434 2.414 0 1.46.434 2.455.44.993 1.227 1.5t1.821.507q.58 0 1.073-.153.501-.153.887-.447.387-.3.641-.727.26-.427.36-.974l2.921.014a5.451 5.451 0 0 1-1.774 3.368 5.7 5.7 0 0 1-1.801 1.08q-1.04.393-2.354.394-1.827 0-3.268-.827-1.434-.828-2.268-2.395-.827-1.567-.827-3.795 0-2.234.841-3.801.84-1.567 2.281-2.388 1.44-.827 3.241-.827 1.187 0 2.201.334 1.02.333 1.807.973a5 5 0 0 1 1.281 1.554q.5.921.64 2.108m3.694-2.401v-2.381h11.218v2.381h-4.181v11.278h-2.855V162.13z"/></g><g filter="url(#f)"><rect width="192" height="53" x="22" y="81" fill="url(#g)" rx="6"/></g><path fill="#fff" d="M74.128 94.295c6.779-.242 11.366 4.406 11.599 11.449v.003c.273 7.804-4.788 17.33-15.118 17.922-3.14.178-6.263-.488-8.32-1.653a.596.596 0 0 1-.23-.773l.908-1.895a.55.55 0 0 1 .776-.251c.583.339 1.266.629 2.015.884a.56.56 0 0 0 .718-.405c1.435-5.605 3.032-11.578 4.626-17.086a.57.57 0 0 1 .508-.415l2.113-.121c.391-.023.684.366.57.756a411 411 0 0 0-4.68 17.244c-.092.371.18.729.548.729.263 0 .526-.005.778-.019 7.225-.414 11.721-8.053 11.472-14.732-.199-5.735-3.612-8.705-8.258-8.512-2.504.11-5.106 1.147-7.013 2.728a.55.55 0 0 1-.832-.136l-1.063-1.728a.6.6 0 0 1 .137-.785c2.505-1.97 5.836-3.072 8.746-3.204m86.488-2.108c.393-.022.687.37.57.759-1.797 5.958-3.263 11.17-4.072 14.245-1.074 4.171-1.116 5.374.106 5.304 1.025-.059 2.407-1.511 3.71-3.706a.6.6 0 0 0 .082-.284c.171-4.395 2.87-8.393 6.882-8.623 2.687-.153 4.159 1.873 4.264 3.867.201 3.806-3.569 6.24-7.221 6.014-.425-.026-.734.43-.547.827.51 1.089 1.585 1.697 3.419 1.591 1.744-.098 3.574-1.601 4.726-2.942a.552.552 0 0 1 .872.03h-.002l.822 1.12a.61.61 0 0 1-.008.723c-1.425 1.845-3.922 3.62-6.934 3.792-2.376.135-4.338-.764-5.405-2.464a.55.55 0 0 0-.914-.038c-1.266 1.697-2.798 3.024-4.395 3.115-2.842.162-3.646-1.741-2.943-5.939.071-.418-.297-.771-.692-.667a5.4 5.4 0 0 1-1.85.17.565.565 0 0 0-.592.4c-1.052 3.45-3.557 6.66-6.798 6.846-2.069.118-5.159-1.066-4.85-6.01.026-.402-.337-.72-.709-.607a5.5 5.5 0 0 1-2.059.229.565.565 0 0 0-.59.401c-1.052 3.45-3.557 6.659-6.797 6.845-2.07.118-5.16-1.065-4.852-6.01.026-.402-.336-.719-.708-.607a5.5 5.5 0 0 1-2.059.23.56.56 0 0 0-.59.4c-1.053 3.45-3.557 6.66-6.797 6.846-1.472.084-3.464-.491-4.378-2.611a.554.554 0 0 0-.966-.115c-1.28 1.743-2.838 3.119-4.466 3.212-1.668.096-2.581-.572-2.978-1.764a.553.553 0 0 0-.953-.187c-1.139 1.337-2.436 2.316-3.749 2.39-2.023.117-3.187-1.38-3.284-3.194-.11-2.116.806-4.594 1.83-7.299.143-.375-.115-.782-.504-.8a14 14 0 0 1-1.899-.205.563.563 0 0 0-.644.412c-1.211 4.316-3.065 8.547-4.63 11.047a.55.55 0 0 1-.798.162l-1.196-.878a.6.6 0 0 1-.147-.793c2.26-3.615 4.268-9.276 4.96-13.462a.57.57 0 0 1 .523-.482l1.588-.091c.365-.021.651.318.585.691l-.006.04a.58.58 0 0 0 .483.687c1.425.196 3.554.22 4.999.163.406-.015.693.405.546.797-1.16 3.079-2.713 7.346-2.623 9.035.04.762.377 1.179.97 1.145 1.135-.065 2.881-2.343 4.205-4.88a.6.6 0 0 0 .052-.145c.455-2.028 1.135-4.293 1.818-6.578a.57.57 0 0 1 .506-.412l1.903-.108c.393-.023.687.372.568.762-1.793 5.889-3.482 11.043-1.479 10.929 1.238-.07 2.992-2.167 4.501-5.152a.6.6 0 0 0 .052-.156q.113-.585.281-1.224c1.151-4.59 2.504-9.125 3.798-13.685a.57.57 0 0 1 .508-.42l1.953-.11c.397-.023.691.375.567.768a856 856 0 0 0-2.37 7.549c-.163.527.402.966.849.663.771-.526 1.663-.876 2.526-.925 2.198-.125 3.694 1.681 3.838 4.4.008.144.016.299.02.456a.58.58 0 0 0 .523.571 3.84 3.84 0 0 0 2.909-.944.57.57 0 0 0 .169-.285c1.087-4.214 2.325-8.387 3.514-12.583a.57.57 0 0 1 .51-.42l1.953-.111c.397-.022.69.376.566.769a863 863 0 0 0-2.37 7.549c-.163.528.403.967.85.663.771-.526 1.662-.875 2.525-.924 2.198-.126 3.695 1.68 3.838 4.4.009.144.017.299.021.456a.58.58 0 0 0 .522.569 3.84 3.84 0 0 0 2.91-.942.6.6 0 0 0 .169-.286c1.087-4.215 2.325-8.387 3.514-12.583a.57.57 0 0 1 .51-.419l1.952-.111c.397-.023.691.376.567.768a859 859 0 0 0-2.371 7.55c-.162.528.404.966.851.662.771-.526 1.662-.874 2.524-.924 2.199-.125 3.695 1.681 3.838 4.401q.013.217.021.455a.58.58 0 0 0 .521.57 3.85 3.85 0 0 0 2.829-.872.57.57 0 0 0 .182-.296c.922-3.549 2.276-8.199 3.582-12.648a.57.57 0 0 1 .508-.412zm-44.507 13.456c-1.57.09-3.26 1.896-3.954 4.663-.866 3.469.186 4.828 1.547 4.75h-.002c2.235-.128 4.398-4.216 4.232-7.371-.073-1.377-.881-2.095-1.823-2.042m15.007-.858c-1.569.09-3.259 1.895-3.953 4.663-.866 3.468.185 4.827 1.546 4.75h-.001c2.235-.128 4.398-4.216 4.232-7.371-.072-1.378-.881-2.095-1.824-2.042m15.008-.859c-1.569.091-3.26 1.896-3.954 4.664-.867 3.468.186 4.827 1.547 4.75h-.001c2.233-.129 4.397-4.217 4.23-7.372-.071-1.377-.879-2.095-1.822-2.042m21.7-1.385h-.001c-1.782.102-3.177 2.029-3.622 4.366-.07.371.202.717.567.709 2.302-.058 4.61-1.574 4.537-3.56-.014-.909-.573-1.567-1.481-1.515m-61.795-5.451c.908-.053 1.643.596 1.695 1.576.074 1.414-1.071 2.899-2.328 2.97-.978.055-1.608-.599-1.659-1.579-.079-1.486 1.036-2.896 2.292-2.968"/><g filter="url(#h)"><path fill="url(#i)" fill-rule="evenodd" d="M118.173 31.654c-5.616 0-10.173 4.557-10.173 10.173S112.557 52 118.173 52c5.605 0 10.173-4.557 10.173-10.173s-4.568-10.173-10.173-10.173m6.719 4.69a8.65 8.65 0 0 1 1.964 5.406c-.286-.055-3.155-.64-6.046-.276-.066-.143-.121-.298-.188-.452-.176-.42-.375-.85-.573-1.258 3.199-1.302 4.656-3.178 4.843-3.42m-6.719-3.19a8.67 8.67 0 0 1 5.76 2.185c-.155.22-1.468 1.975-4.557 3.134-1.424-2.615-3.001-4.756-3.244-5.087a8.8 8.8 0 0 1 2.041-.231m-3.696.817c.231.309 1.776 2.46 3.222 5.02-4.061 1.082-7.647 1.06-8.033 1.06a8.73 8.73 0 0 1 4.811-6.08m-4.998 7.867v-.265c.375.011 4.589.066 8.926-1.236.253.486.485.982.706 1.479-.111.033-.232.066-.342.1-4.48 1.445-6.863 5.395-7.062 5.726a8.67 8.67 0 0 1-2.228-5.804m8.694 8.684a8.63 8.63 0 0 1-5.329-1.832c.154-.32 1.92-3.718 6.818-5.429.023-.01.034-.01.056-.022a36 36 0 0 1 1.853 6.587 8.5 8.5 0 0 1-3.398.696m4.844-1.49c-.089-.53-.552-3.067-1.688-6.19 2.725-.43 5.108.276 5.406.375a8.61 8.61 0 0 1-3.718 5.815" clip-rule="evenodd"/></g><defs><linearGradient id="a" x1="206.381" x2="-2.099" y1="226" y2="52.467" gradientUnits="userSpaceOnUse"><stop/><stop offset=".521"/><stop offset="1" stop-color="#4a6071"/></linearGradient><linearGradient id="b" x1="206.381" x2="-2.099" y1="226" y2="52.467" gradientUnits="userSpaceOnUse"><stop/><stop offset=".521"/><stop offset="1" stop-color="#4a6071"/></linearGradient><linearGradient id="c" x1="116.952" x2="38.386" y1="337.436" y2="-88.375" gradientUnits="userSpaceOnUse"><stop/><stop offset=".521"/><stop offset="1" stop-color="#4a6071"/></linearGradient><linearGradient id="e" x1="76.8" x2="84.789" y1="157.408" y2="193.237" gradientUnits="userSpaceOnUse"><stop stop-color="#4a6071"/><stop offset=".479"/><stop offset="1"/></linearGradient><linearGradient id="g" x1="22" x2="48.582" y1="81" y2="178.68" gradientUnits="userSpaceOnUse"><stop stop-color="#4a6071"/><stop offset=".479"/><stop offset="1"/></linearGradient><linearGradient id="i" x1="108" x2="128.135" y1="31.654" y2="52.079" gradientUnits="userSpaceOnUse"><stop stop-color="#4a6071"/><stop offset=".479"/><stop offset="1"/></linearGradient><filter id="d" width="86.9" height="20.238" x="75.067" y="153.363" color-interpolation-filters="sRGB" filterUnits="userSpaceOnUse"><feFlood flood-opacity="0" result="BackgroundImageFix"/><feColorMatrix in="SourceAlpha" result="hardAlpha" values="0 0 0 0 0 0 0 0 0 0 0 0 0 0 0 0 0 0 127 0"/><feOffset dy="-3.719"/><feGaussianBlur stdDeviation="1.24"/><feComposite in2="hardAlpha" operator="out"/><feColorMatrix values="0 0 0 0 0 0 0 0 0 0 0 0 0 0 0 0 0 0 0.06 0"/><feBlend in2="BackgroundImageFix" result="effect1_dropShadow_206_389"/><feBlend in="SourceGraphic" in2="effect1_dropShadow_206_389" result="shape"/></filter><filter id="f" width="196.959" height="59.199" x="19.52" y="74.801" color-interpolation-filters="sRGB" filterUnits="userSpaceOnUse"><feFlood flood-opacity="0" result="BackgroundImageFix"/><feColorMatrix in="SourceAlpha" result="hardAlpha" values="0 0 0 0 0 0 0 0 0 0 0 0 0 0 0 0 0 0 127 0"/><feOffset dy="-3.719"/><feGaussianBlur stdDeviation="1.24"/><feComposite in2="hardAlpha" operator="out"/><feColorMatrix values="0 0 0 0 0 0 0 0 0 0 0 0 0 0 0 0 0 0 0.06 0"/><feBlend in2="BackgroundImageFix" result="effect1_dropShadow_206_389"/><feBlend in="SourceGraphic" in2="effect1_dropShadow_206_389" result="shape"/></filter><filter id="h" width="25.305" height="26.545" x="105.52" y="25.455" color-interpolation-filters="sRGB" filterUnits="userSpaceOnUse"><feFlood flood-opacity="0" result="BackgroundImageFix"/><feColorMatrix in="SourceAlpha" result="hardAlpha" values="0 0 0 0 0 0 0 0 0 0 0 0 0 0 0 0 0 0 127 0"/><feOffset dy="-3.719"/><feGaussianBlur stdDeviation="1.24"/><feComposite in2="hardAlpha" operator="out"/><feColorMatrix values="0 0 0 0 0 0 0 0 0 0 0 0 0 0 0 0 0 0 0.06 0"/><feBlend in2="BackgroundImageFix" result="effect1_dropShadow_206_389"/><feBlend in="SourceGraphic" in2="effect1_dropShadow_206_389" result="shape"/></filter></defs></svg>