<svg xmlns="http://www.w3.org/2000/svg" width="96" height="25" fill="none"><path fill="#14A800" d="M25.573 5.111c-4.243 0-6.618 2.674-7.298 5.426-.77-1.402-1.341-3.278-1.785-5.022h-5.866v7.056c0 2.56-1.205 4.453-3.562 4.453s-3.708-1.893-3.708-4.453l.027-7.056H0v7.056c0 2.06.689 3.927 1.949 5.26 1.296 1.376 3.064 2.095 5.113 2.095 4.08 0 6.926-3.025 6.926-7.355V7.829c.426 1.56 1.44 4.558 3.38 7.188L15.557 25h3.435l1.197-7.074c.39.316.807.596 1.251.85a7.83 7.83 0 0 0 3.826 1.14s.208.008.317.008c4.206 0 7.551-3.146 7.551-7.398s-3.354-7.416-7.56-7.416m0 11.904c-2.602 0-4.324-1.946-4.805-2.7.617-4.768 2.42-6.276 4.805-6.276 2.357 0 4.188 1.823 4.188 4.488s-1.831 4.488-4.188 4.488M74.154 7.023V5.515h-3.318V19.48h3.363v-5.47c0-3.366.317-5.785 4.986-5.47V5.35c-2.176-.158-3.87.28-5.031 1.674M50.803 5.514l-2.439 9.765-2.601-9.765h-4.28l-2.61 9.765-2.43-9.765h-3.408l3.735 13.972h4.043l2.81-9.923 2.783 9.923h4.043l3.953-13.972zM61.805 5.111c-4.233 0-7.551 3.174-7.551 7.416s3.318 7.39 7.551 7.39c4.206 0 7.551-3.147 7.551-7.39 0-4.242-3.335-7.416-7.55-7.416m0 11.913c-2.393 0-4.188-1.823-4.188-4.497s1.804-4.488 4.188-4.488c2.357 0 4.188 1.823 4.188 4.488s-1.83 4.497-4.188 4.497M84.005 12.614h.78l4.695 6.872h3.799l-5.403-7.617c2.62-.99 4.378-3.577 4.378-6.355H88.9c0 3.015-2.456 4.155-4.895 4.155V0h-3.372v19.486h3.363z"/></svg>